<svg id="Capa_1" data-name="Capa 1" xmlns="http://www.w3.org/2000/svg" width="1695.38" height="1696" viewBox="0 0 1695.38 1696">
  <title>Logochek</title>
  <g>
    <g>
      <path d="M1308,534.23c-65.73,0-112.88,49.3-112.88,121.46S1242.32,777.16,1308,777.16a141.74,141.74,0,0,0,112.16-45.73l45.72,45.73c-34.29,45-89.3,70.71-161.46,70.71C1191.59,847.87,1113,770,1113,655.69c0-115,78.59-193.62,191.47-193.62,68.59,0,122.17,22.16,157.18,62.16l-45,52.87A143.58,143.58,0,0,0,1308,534.23Z" transform="translate(-1113 848)" style="fill: #523178"/>
      <path d="M1919.61,608.54V845h-82.16V631.39A84.65,84.65,0,0,0,1746,539.25c-67.87.7-108.59,51.43-108.59,118.58V845h-82.16V314.89h82.16V539.25c27.15-53.59,75.73-77.18,140.75-77.18C1866.74,462.07,1919.61,517.8,1919.61,608.54Z" transform="translate(-1113 848)" style="fill: #523178"/>
      <path d="M2364,686.41H2076.79a115.7,115.7,0,0,0,117.88,95,147.68,147.68,0,0,0,107.16-44.28l43.57,46.45a206.85,206.85,0,0,1-157.17,64.28c-117.17,0-194.34-77.87-194.34-192.18a184.56,184.56,0,0,1,192.2-193.62C2319.69,462.07,2374,549.24,2364,686.41Zm-71.44-60C2289.7,565,2249,527.8,2186.8,527.8a107.69,107.69,0,0,0-111.45,98.6Z" transform="translate(-1113 848)" style="fill: #523178"/>
      <path d="M2599.76,670.69l-64.31,67.88V845h-82.15V314.89h82.15V635l167.89-170h94.31L2656.92,612.1,2808.38,845h-97.16Z" transform="translate(-1113 848)" style="fill: #523178"/>
    </g>
    <path d="M1995.94-292.35,2226.41-6h159.83L2091-381.74Z" transform="translate(-1113 848)" style="fill: #523178"/>
    <path d="M2485.15-848H2295.28L1807.87-381.16V-730.77l-130,112.08V-78.34l.14-.29,125.29-119.42Z" transform="translate(-1113 848)" style="fill: #ffb81c"/>
  </g>
</svg>
